<svg width="1201" height="474" viewBox="0 0 1201 474" fill="none" xmlns="http://www.w3.org/2000/svg">
<path d="M193.072 231.063C193.072 231.063 106.701 88.9323 22.0404 138.217C-62.62 187.501 113.542 450.067 263.194 473.859C323.478 478.636 371.537 361.683 366.494 182.965C366.806 132.453 355.624 82.7146 327.601 93.057C327.601 93.057 319.194 82.3498 300.779 91.6812C300.779 91.6812 289.869 85.7826 283.213 96.2122C273.448 111.513 303.181 119.311 287.968 186.139C286.367 190.515 279.561 149.94 255.141 155.509C243.932 159.089 282.764 196.879 276.359 234.271C269.953 271.663 254.018 311.161 254.018 311.161L193.072 231.063Z" fill="#2227F5"/>
<path d="M300.779 91.6812C300.779 91.6812 313.723 107.077 316.768 152.906L300.779 91.6812Z" fill="#2227F5"/>
<path d="M327.602 93.0571C327.602 93.0571 341.128 122.294 340.966 152.906L327.602 93.0571Z" fill="#2227F5"/>
<path d="M366.857 1.79356C366.857 1.79356 227.097 -42.0746 171.527 304.095C159.757 377.417 169.549 387.835 181.835 403.442C183.414 405.448 186.645 403.917 186.106 401.428C183.794 390.764 181.837 376.737 182.044 360.256C182.072 358.045 183.873 356.292 186.122 356.303C188.346 356.331 190.127 358.145 190.099 360.355C189.778 385.966 195.043 405.615 198.133 414.877C198.503 415.987 199.158 416.973 200.045 417.741C201.98 419.417 204.805 421.233 208.46 421.942C213.604 422.939 217.848 417.905 215.943 413.054C211.195 400.958 206.091 381.216 206.988 353.358C207.059 351.149 208.931 349.413 211.143 349.486C213.367 349.557 215.111 351.405 215.04 353.614C214.013 385.51 221.358 406.215 226.087 416.093C228.85 421.863 235.486 424.733 241.609 422.778C242.085 422.626 242.569 422.454 243.062 422.259C255.201 417.464 228.926 367.457 240.198 338.378C241.499 334.501 255.952 377.966 274.277 370.507C295.83 361.734 259.645 338.307 256.039 310.076C255.569 306.395 260.191 304.359 262.628 307.17C281.862 329.369 335.07 401.681 282.135 471.259C282.135 471.259 378.752 451.877 437.919 174.347C464.023 55.2645 413.259 8.20854 366.857 1.79356Z" fill="#FC59CE"/>
<path d="M383.801 111.257C381.604 110.354 379.226 112.129 379.478 114.479C381.022 128.904 382.372 152.553 377.917 172.403C377.499 174.267 375.834 175.535 373.99 175.535C373.513 175.535 373.024 175.45 372.544 175.269C370.626 174.547 369.663 172.426 370.104 170.436C374.853 149.015 372.373 122.1 370.772 109.607C370.447 107.07 368.825 104.898 366.49 103.825C366.178 103.681 365.854 103.543 365.518 103.411C360.217 101.327 354.596 105.686 355.375 111.297C357.092 123.661 358.012 142.474 354.323 167.012C354.025 168.998 352.306 170.424 350.344 170.424C349.761 170.424 349.16 170.301 348.554 170.005C346.956 169.223 346.115 167.438 346.377 165.687C350.215 140.051 348.758 120.862 346.888 109.35C345.588 101.348 335.716 98.0544 329.889 103.728C329.819 103.796 329.746 103.863 329.679 103.936C322.55 111.729 337.075 117.1 318.235 181.451C317.161 185.121 314.23 185.888 313.239 182.195C309.89 169.715 302.823 150.846 289.565 155.95C274.06 163.819 311.586 180.09 293.449 237.393C291.24 244.373 266.583 289.95 258.501 304.809C256.941 307.678 257.149 311.175 259.036 313.843L279.714 343.064C284.497 349.823 286.901 357.961 286.554 366.216L282.136 471.259C340.968 447.729 378.662 279.302 392.5 206.296C402.17 163.396 403.206 119.229 383.801 111.257Z" fill="#2227F5"/>
<path d="M703.724 407.947C703.388 408.003 703.494 407.923 703.724 407.947V407.947Z" fill="#2227F5"/>
<path d="M908.967 400.926C909.047 400.933 909.087 400.923 909.166 400.925C909.315 400.669 909.454 400.448 909.587 400.281L908.967 400.926Z" fill="#2227F5"/>
<path d="M941.941 403.196C942.005 403.22 942.048 403.236 942.107 403.258C942.097 403.132 942.134 403.007 941.941 403.196Z" fill="#2227F5"/>
<path d="M832.867 402.957C832.583 402.943 832.427 403 832.314 403.083C832.475 403.028 832.642 402.979 832.867 402.957Z" fill="#2227F5"/>
<path d="M643.562 414.718C643.562 414.718 643.636 414.698 643.692 414.683C643.58 414.649 643.467 414.628 643.35 414.58L643.562 414.718Z" fill="#2227F5"/>
<path d="M644.192 414.217C644.937 414.322 644.032 414.604 643.721 414.694C644.558 414.951 645.361 414.885 646.155 414.631C646.106 414.234 644.583 414.471 644.192 414.217Z" fill="#2227F5"/>
<path d="M534.982 432.038L535.24 431.849C535.129 431.907 535.052 431.972 534.982 432.038Z" fill="#2227F5"/>
<path d="M836.332 422.556C836.173 422.593 835.992 422.611 835.846 422.651C836.099 422.662 836.236 422.617 836.332 422.556Z" fill="#2227F5"/>
<path d="M552.154 429.19L552.226 428.533C552.108 428.821 552.107 429.024 552.154 429.19Z" fill="#2227F5"/>
<path d="M909.594 400.256L909.813 400.038C909.739 400.088 909.669 400.165 909.594 400.256Z" fill="#2227F5"/>
<path d="M972.387 404.993C972.389 405.188 972.452 405.346 972.527 405.482C972.564 405.485 972.593 405.489 972.612 405.491L972.387 404.993Z" fill="#2227F5"/>
<path d="M1124.58 426.178C1124.58 426.1 1124.56 426.016 1124.53 425.927L1123.88 426.313C1124.2 426.303 1124.43 426.257 1124.58 426.178Z" fill="#2227F5"/>
<path d="M1013.99 409.815C1014.03 409.744 1014.13 409.684 1014.15 409.604C1013.45 409.343 1011.57 409.165 1009.16 409.022L1008.97 409.789L1013.99 409.815Z" fill="#2227F5"/>
<path d="M1058.15 431.078L1053.86 429.209C1060.97 429.343 1066.15 429.917 1071.08 430.405C1076.01 430.965 1080.67 431.524 1086.78 431.459L1086.08 431.733C1087.8 432.26 1089.13 428.855 1108.19 434.98L1108.18 435.135C1108.86 435.173 1108.88 434.861 1110.19 435.404L1106.92 434.13C1108.97 433.93 1110.81 433.353 1113.51 433.503C1114.06 433.73 1114.22 434.068 1114.26 434.323L1120.87 434.688L1122.79 435.887C1124.86 435.532 1124.16 433.322 1129.43 435.017C1127.55 433.351 1132.2 434.388 1131.61 433.575C1131.87 433.783 1132.46 434.114 1132.93 434.413C1136.15 434.547 1142.24 434.708 1143.82 434.094C1143.82 434.094 1131.59 429.801 1128.36 427.904C1132.85 428.735 1129.58 427.837 1128.74 427.257L1128.4 427.595C1125.72 426.978 1125.82 426.049 1124.49 425.662C1124.48 425.737 1124.51 425.831 1124.54 425.927L1124.73 425.819C1124.84 425.995 1124.75 426.102 1124.6 426.181C1124.61 426.383 1124.47 426.528 1123.73 426.402L1123.89 426.318C1122.74 426.346 1120.8 426.014 1119.95 425.867L1120.01 425.088C1117.86 426.377 1106.71 421.546 1104.01 421.24C1101.39 420.002 1097.91 420.905 1094.56 420.092C1089.18 419.328 1091.96 418.7 1089.31 417.772C1085.96 416.962 1089.91 418.744 1088.55 418.667L1084.58 417.199C1086.95 417.33 1085.71 416.739 1085.31 416.398C1081.81 415.932 1076.39 413.979 1075.18 415.429C1070.5 414.265 1070.53 413.707 1068.5 413.468C1069.16 413.799 1070.49 414.15 1070.48 414.464C1068.63 413.646 1069.56 414.57 1070.32 414.777C1067.37 415.25 1055.49 410.896 1054.74 412.559L1054.77 412.248C1053.99 413.471 1054.98 414.78 1052.9 415.34L1051.6 414.679L1049.52 415.082C1048.19 414.575 1048.88 414.284 1048.89 414.128C1045.54 414.483 1040.96 413.461 1036.96 413.011L1040.96 416.771C1037.64 415.735 1031.64 413.685 1030.89 414.753L1028.93 413.446C1022.29 410.751 1024.13 414.082 1021.46 413.223L1018.13 411.717L1021.52 411.976C1018.17 411.096 1016.84 410.587 1014.18 409.571C1014.18 409.584 1014.15 409.591 1014.15 409.603C1014.33 409.669 1014.45 409.738 1014.47 409.816L1013.99 409.814C1013.54 410.418 1011.74 410.728 1009.35 410.52C1005.96 410.074 1003.25 410.912 997.891 409.325L996.465 410.562L992.427 409.606L992.482 408.572C994.479 408.693 997.364 408.74 1000.39 408.778C1003.42 408.807 1006.6 408.84 1009.16 409.021L1009.28 408.555C1006.24 408.312 1002.74 408.634 1000.74 408.442C999.765 408.192 997.31 407.004 999.173 406.388L997.234 407.315C987.048 406.974 986.984 407.021 976.413 405.374L977.311 405.934C975.189 406.144 973.075 406.347 972.526 405.48C966.154 405.023 959.572 404.075 955.476 402.58L954.522 403.758C953.177 403.63 951.223 401.699 950.505 403.375L947.606 403.783C945.767 403.608 944.615 404.253 942.541 403.46L942.53 403.456C942.404 403.403 942.271 403.349 942.139 403.294C942.138 403.331 942.148 403.364 942.159 403.397C938.003 402.765 942.165 404.488 937.409 403.686C935.903 402.788 935.667 405.198 933.349 404.873L931.062 403.077C926.87 401.988 926.099 403.726 919.989 403.606C917.07 402.923 915.683 401.402 917.659 400.117C914.948 401.666 916.418 401.138 912.854 401.834C912.322 401.163 912.702 401.031 913.499 400.455C910.362 399.618 911.542 401.011 909.166 400.923C908.452 402.15 907.619 404.11 906.847 404.175L907.759 404.581C905.234 405.194 902.486 405.446 899.575 404.763L899.695 404.141L896.581 404.394L896.396 403.591L891.953 403.748L892.559 403.976C891.515 404.06 888.09 404.265 886.138 403.807L886.213 403.365C884.836 402.991 883.517 402.817 882.212 402.769C880.907 402.752 879.616 402.857 878.296 403.011C875.655 403.318 872.897 403.817 869.663 403.901L870.515 402.992C868.313 402.099 869.906 404.388 867.282 403.947L867.153 402.835C864.838 404.305 864.164 402.534 862.569 401.986L863.314 403.442L860.313 403.144C857.007 402.672 858.281 401.309 858.764 400.544L856.514 401.7L856.07 400.415C854.429 401.917 854.423 400.179 851.541 400.992C851.301 400.506 852.029 400.225 851.047 400.021L846.301 401.851L849.165 401.038L848.827 402.919C845.851 404.356 844.781 402.728 842.653 403.26L844.117 402.696C840.64 403.164 840.448 402.365 838.478 401.955C839.091 402.302 840.028 402.818 838.621 403.069C837.588 403.176 838.054 402.41 837.073 402.206C836.853 403.459 834.366 404.131 832.096 403.549C832.121 403.37 832.167 403.198 832.313 403.084C831.739 403.288 831.444 403.612 830.435 403.314L831.008 401.92L829.092 403.252C827.796 402.868 825.93 403.899 826.085 402.967L826.814 402.67L817.033 402.593L816.875 401.483C815.941 403.04 811.537 401.042 811.899 402.946C810.031 401.953 804.658 403.877 805.69 401.691C799.257 401.696 795.85 403.864 788.011 403.024C785.17 401.296 777.561 401.998 772.544 402.071C762.777 403.322 756.483 404.324 746.51 405.407C743.433 404.28 739.689 404.686 735.9 405.234C732.111 405.783 728.275 406.445 724.997 405.993L723.29 407.134C718.884 405.831 712.456 408.278 706.31 407.14C704.864 407.689 704.1 407.886 703.759 407.947C704.036 407.976 704.467 408.137 704.646 408.771C702.89 408.443 699.45 409.26 699.599 407.958L700.027 407.795C700.179 406.492 694.845 408.772 692.834 407.799L693.999 409.098L690.718 409.101L691.57 408.773C689.829 409.283 688.202 409.667 686.66 409.958C685.12 410.276 683.666 410.509 682.272 410.671C679.481 410.998 676.926 411.065 674.397 411.121C669.338 411.234 664.374 411.305 657.873 413.322C659.482 411.658 655.336 414.355 654.994 412.735C651.43 410.998 648.829 413.737 646.152 414.629C646.161 414.71 646.138 414.808 645.994 414.952L641.182 415.311C643.813 412.912 637.924 417.425 640.355 415.361C634.022 415.311 626.817 416.153 619.384 417.126C611.95 418.109 604.313 419.481 597.04 420.082L597.748 420.525C594.073 420.935 589.613 422.172 586.713 421.748C583.809 421.342 580.855 424.047 579.796 424.3C576.906 425.689 573.855 424.315 575.173 424.203C571.963 424.969 569.225 427.321 564.59 427.233C562.747 425.769 552.639 431.12 552.152 429.188L552.133 429.361C546.111 428.964 541.148 432.436 534.71 432.408C534.71 432.408 534.798 432.242 534.981 432.069C533.086 433.45 531.194 434.922 529.323 436.35C527.455 437.779 525.583 439.216 523.746 440.694C525.479 442.567 527.112 444.435 528.778 446.347C532.728 447.332 536.601 448.296 540.529 449.379C550.035 447.028 559.696 444.981 569.343 442.914C577.251 442.4 585.124 441.799 593.021 441.36C602.509 439.97 611.979 438.459 621.49 437.166L650.068 433.498C651.377 432.836 652.696 432.238 654.01 431.604C659.792 432.375 666.216 431.672 672.749 430.864C676.014 430.46 679.306 430.03 682.551 429.746C685.796 429.453 688.995 429.315 692.082 429.587L692.229 428.285C695.66 427.961 695.49 428.774 696.357 428.937C704.342 428.29 712.379 427.549 720.398 426.794C724.409 426.442 728.407 425.981 732.406 425.718C736.405 425.442 740.388 425.167 744.346 424.894C760.185 423.901 775.631 422.881 790.091 423.468C792.899 424.245 801.344 423.518 803.549 424.361C808.211 423.447 813.027 422.929 817.849 422.627C822.672 422.328 827.5 422.203 832.197 422.317L831.844 422.46L836.263 422.197C836.451 422.302 836.476 422.456 836.336 422.555C841.312 421.397 849.184 422.5 855.29 422.944L854.934 423.086C863.84 423.115 872.586 422.979 881.25 422.785C889.917 422.769 898.5 422.752 907.073 422.736C924.22 422.786 941.349 422.753 958.969 424.631C967.136 426.05 976.018 426.248 985.212 426.416C994.402 426.627 1003.92 426.594 1013.26 428.232C1016.64 429.753 1054.74 431.445 1058.15 431.078Z" fill="#2227F5"/>
<path d="M1114.24 434.323L1114.11 434.316C1114.06 434.818 1114.28 434.647 1114.24 434.323Z" fill="#2227F5"/>
<path d="M1036.7 412.98C1036.79 412.991 1036.87 413.001 1036.95 413.011L1036.07 412.182L1036.7 412.98Z" fill="#2227F5"/>
<path d="M1087.38 416.415C1085.12 416.03 1085.01 416.151 1085.31 416.399C1086.12 416.508 1086.85 416.536 1087.38 416.415Z" fill="#2227F5"/>
<path d="M1132.82 435.049C1134 435.204 1133.59 434.84 1132.93 434.414C1131.71 434.355 1130.86 434.315 1130.86 434.315C1131.51 434.507 1132.15 434.855 1132.82 435.049Z" fill="#2227F5"/>
<path d="M1128.74 427.252L1129.16 426.855C1128.44 426.895 1128.45 427.056 1128.74 427.252Z" fill="#2227F5"/>
<path d="M697.661 195.105C688.701 211.77 675.952 242.928 659.412 288.579C654.588 302.05 648.843 324.306 642.182 355.347C635.749 385.022 629.547 407.503 623.575 422.798C621.507 425.077 619.095 426.223 616.339 426.223C613.12 426.223 608.984 424.51 603.933 421.086C594.975 399.858 584.517 364.933 572.577 316.313C561.318 269.977 550.059 234.71 538.807 210.512C541.789 204.808 544.321 201.953 546.389 201.953C548.224 200.813 550.059 200.24 551.901 200.24C555.573 200.24 562.008 203.664 571.197 210.512C579.467 229.232 587.393 252.172 594.975 279.333C600.945 302.846 607.035 326.242 613.237 349.525C621.734 321.678 630.235 293.714 638.736 265.638C648.843 234.137 659.179 206.975 669.75 184.147C673.194 178.215 679.165 176.273 687.668 178.328C688.583 178.557 689.735 179.413 691.114 180.895C692.492 182.382 694.215 183.18 696.282 183.292C698.35 183.409 699.383 185.062 699.383 188.256C699.383 190.541 698.808 192.825 697.661 195.105Z" fill="#FC59CE"/>
<path d="M743.49 218.387C743.947 225.011 744.18 231.858 744.18 238.931C744.18 254.457 742.569 277.852 739.356 309.122C736.136 340.398 734.531 364.023 734.531 379.999C734.531 385.937 734.645 391.753 734.875 397.461C732.807 403.849 728.328 406.93 721.437 406.705C711.557 406.246 706.157 402.024 705.241 394.037C704.32 386.05 703.863 377.602 703.863 368.699C703.863 353.179 705.758 330.008 709.549 299.193C713.339 268.377 715.234 245.324 715.234 230.029C715.234 224.096 715.003 218.276 714.545 212.567C716.84 208.233 720.748 206.061 726.262 206.061C730.622 206.061 734.989 207.318 739.356 209.827C740.27 209.143 740.96 208.8 741.422 208.8C742.112 208.8 742.456 209.946 742.456 212.225C742.225 214.964 742.225 216.563 742.456 217.018C742.682 217.703 743.028 218.163 743.49 218.387Z" fill="#FC59CE"/>
<path d="M862.714 315.97C860.415 321.224 858.236 326.473 856.168 331.721C853.41 337.884 850.423 342.794 847.208 346.443C840.085 355.346 832.962 364.135 825.844 372.808C817.343 383.31 809.65 390.613 802.758 394.721C800.458 397.46 797.933 400.312 795.176 403.281C792.419 406.246 789.663 407.732 786.906 407.732C785.528 407.732 783.918 407.39 782.081 406.705C780.241 406.021 778.232 405.218 776.051 404.308C773.866 403.393 772.316 401.912 771.4 399.857C770.711 390.27 770.367 379.999 770.367 369.041C770.367 357.86 770.824 341.196 771.745 319.052C772.66 296.914 773.124 280.249 773.124 269.062C773.124 254.226 772.547 240.643 771.4 228.317C771.169 228.092 768.644 225.466 763.82 220.441C760.831 217.478 759.34 214.739 759.34 212.225C759.34 211.085 759.566 209.946 760.03 208.8C761.177 206.061 763.702 204.467 767.61 204.007C770.592 203.552 773.581 203.21 776.57 202.979C795.866 207.088 816.078 217.821 837.216 235.165C842.728 239.734 847.208 244.527 850.654 249.545C861.68 265.756 867.194 280.934 867.194 295.085C867.194 302.392 865.698 309.352 862.714 315.97ZM837.904 279.333C835.837 264.953 823.545 252.284 801.033 241.328C799.424 279.452 798.967 319.854 799.655 362.536C825.612 336.744 838.594 312.203 838.594 288.921C838.594 285.727 838.363 282.533 837.904 279.333Z" fill="#FC59CE"/>
<path d="M1007.78 375.205C1009.16 378.859 1009.85 382.053 1009.85 384.793C1009.85 389.361 1007.89 393.352 1003.99 396.777C1000.08 400.201 997.444 401.795 996.065 401.57C984.807 399.515 977.684 390.501 974.701 374.521C971.482 357.176 967.691 342.678 963.329 331.036C955.518 331.722 947.705 332.406 939.899 333.091C930.939 334.236 923.929 336.975 918.879 341.309C916.349 348.386 913.021 360.943 908.886 378.972C904.977 395.632 901.186 408.3 897.514 416.978C895.672 421.087 891.769 422.226 885.798 420.402C878.218 417.888 874.195 414.463 873.738 410.13C873.048 401.452 875.573 389.816 881.318 375.206C888.21 358.546 892 346.675 892.69 339.597C892.916 337.543 891.425 335.263 888.21 332.748C884.991 330.239 883.386 328.298 883.386 326.929C883.386 325.789 883.904 324.59 884.936 323.333C885.97 322.081 888.382 321.054 892.174 320.251C895.964 319.454 898.084 318.256 898.548 316.656C902.682 305.245 909.23 284.016 918.189 252.97C925.77 226.038 932.543 205.377 938.52 190.997C939.898 187.803 942.768 186.203 947.135 186.203C950.348 186.203 953.219 187.23 955.749 189.285C962.177 194.763 966.313 202.98 968.155 213.937C969.533 223.299 970.793 232.657 971.945 242.014C983.428 295.887 995.376 340.281 1007.78 375.205ZM957.473 309.807C956.783 301.365 955.285 291.891 952.993 281.389C950.694 272.262 948.513 263.13 946.445 253.997C939.553 272.946 933.577 291.891 928.527 310.835C932.199 310.15 941.847 309.807 957.473 309.807Z" fill="#FC59CE"/>
<path d="M1093.58 184.491C1093.58 189.059 1090.25 193.05 1083.59 196.474C1081.75 197.389 1079.8 197.502 1077.73 196.816C1074.51 195.907 1072.79 195.447 1072.56 195.447C1071.18 195.447 1069.8 196.132 1068.43 197.502C1056.02 209.827 1049.82 224.893 1049.82 242.698C1049.82 249.321 1050.85 255.484 1052.92 261.188C1053.84 263.701 1062.57 281.389 1079.11 314.259C1090.13 336.172 1095.65 354.78 1095.65 370.069C1095.65 382.626 1092.55 394.722 1086.34 406.363C1084.28 410.242 1079.11 415.266 1070.84 421.429C1064.17 426.223 1058.2 428.62 1052.92 428.62C1050.85 428.62 1048.9 428.277 1047.06 427.592C1040.17 424.622 1036.72 420.856 1036.72 416.293C1036.72 413.554 1038.45 410.242 1041.89 406.364C1042.81 405.219 1044.99 404.534 1048.44 404.309C1051.89 404.079 1054.18 402.71 1055.33 400.201C1060.16 390.158 1062.57 379.887 1062.57 369.385C1062.57 354.549 1055.16 333.037 1040.34 304.843C1025.53 276.654 1018.12 254.115 1018.12 237.22C1018.12 223.299 1020.87 210.855 1026.39 199.899C1032.59 187.348 1041.43 178.328 1052.92 172.849C1058.2 170.34 1063.37 169.083 1068.43 169.083C1078.07 169.083 1085.31 171.71 1090.13 176.958C1092.43 179.473 1093.58 181.981 1093.58 184.491Z" fill="#FC59CE"/>
<path d="M521.378 149.213C520.608 145.261 517.658 118.496 517.016 109.191C516.632 103.965 516.246 93.1313 516.246 85.2286V70.6986L513.168 71.2082C511.373 71.463 508.806 71.8445 507.524 71.973C505.472 72.3553 504.829 72.0996 503.034 70.3156C499.956 67.2572 500.725 63.1776 504.573 61.3936C507.524 60.1192 520.865 57.9522 531.768 57.8247C536.642 57.8247 541.004 57.5698 542.543 59.2263C544.724 61.6484 544.851 65.0898 542.543 67.2572C541.131 68.7864 540.361 68.9139 535.488 68.9139C532.409 68.9139 529.587 69.1687 529.074 69.4236C527.792 70.3156 527.279 88.288 528.176 103.328C528.561 110.338 529.844 123.721 530.997 132.898C532.025 142.203 533.435 148.448 532.921 150.615C532.281 153.419 528.688 156.224 525.994 155.204C523.429 154.057 521.891 151.89 521.378 149.213Z" fill="#2227F5"/>
<path d="M557.937 60.3737C570.38 60.6285 580.385 66.492 583.592 76.6884C587.568 89.3068 582.437 105.622 570.123 120.279C567.942 122.828 566.53 125.123 566.787 125.378C567.173 125.633 570.893 126.525 575.253 127.417C581.411 128.691 583.463 129.329 584.747 130.603C587.825 133.663 586.286 138.633 581.924 139.654C580.898 139.908 576.152 139.271 570.123 137.996C564.735 136.848 559.989 136.084 559.862 136.212C559.733 136.339 559.862 139.909 560.246 143.986C560.759 149.85 560.759 151.889 559.989 153.546C558.45 157.498 554.217 158.262 551.01 155.203C549.471 153.673 549.086 152.654 549.086 150.615C549.086 149.212 548.446 141.309 547.676 133.152C546.392 121.044 546.136 114.034 546.136 93.3854C546.136 62.6673 545.879 60.2461 554.858 60.2461C555.757 60.2461 556.782 60.2461 557.937 60.3737ZM557.551 79.3653C556.782 92.8758 557.295 117.093 558.45 116.456C558.706 116.201 560.758 113.652 562.939 110.847C569.224 102.563 573.714 92.1104 573.714 85.3555C573.714 79.1105 569.737 74.0114 563.452 72.2274C561.913 71.7177 560.887 71.4626 560.118 71.4626C558.064 71.3344 557.808 73.2466 557.551 79.3653Z" fill="#2227F5"/>
<path d="M616.303 65.4721C621.69 69.9331 623.101 72.8649 627.334 112.377C628.104 119.388 629.386 128.182 630.156 132.133C630.925 135.958 631.311 139.781 631.054 140.674C630.028 144.88 624.77 146.409 621.69 143.35C620.407 142.075 619.765 140.036 618.483 133.536L616.944 125.251L614.25 125.633C612.711 125.888 610.53 126.525 607.836 126.653C605.143 126.908 602.577 127.418 602.32 127.801C601.936 128.31 601.294 132.262 600.91 136.723C600.012 144.752 599.499 146.791 597.574 148.193C595.652 149.596 592.188 149.213 590.391 147.429C588.212 145.39 588.212 145.007 590.647 121.937C594.88 82.424 597.703 76.4338 603.475 68.0215C605.527 65.0898 608.478 63.5605 611.429 63.5605C613.097 63.5605 614.892 64.1977 616.303 65.4721ZM604.374 104.985C602.962 117.093 602.193 115.946 610.53 114.799C613.224 114.416 614.635 113.652 615.019 113.397C616.174 112.632 612.454 82.424 610.915 80.8948C610.829 80.8098 610.744 80.7673 610.659 80.7673C609.247 81.0221 606.297 88.1594 604.374 104.985Z" fill="#2227F5"/>
<path d="M669.411 151.507C668 149.467 657.738 127.546 651.966 114.289C649.145 107.916 646.707 102.436 646.578 102.308C646.322 102.053 646.451 105.112 646.578 108.809C646.835 112.632 647.091 120.789 647.091 127.035L647.22 136.722C647.22 138.506 646.964 139.781 645.681 140.929C644.013 142.33 641.575 142.84 639.395 141.948C635.931 140.674 635.931 139.144 635.161 106.132C634.135 71.4632 634.135 72.0995 638.754 70.5703C641.448 69.6783 643.371 70.5703 646.194 73.7569C646.964 74.6498 651.966 85.2285 657.098 97.3371C662.357 109.318 667.23 120.408 668 122.064L669.411 124.995L669.924 104.857C670.181 93.7678 670.566 79.8752 670.823 73.8841C671.207 63.0506 671.207 62.9224 673.002 61.1384C675.44 58.7162 677.877 58.7162 680.315 61.2659C682.752 63.5605 682.623 60.1191 681.341 112.377C680.955 128.82 680.315 141.055 680.058 147.046C679.802 153.292 675.569 155.459 671.849 153.547C670.822 153.037 670.053 152.273 669.411 151.507Z" fill="#2227F5"/>
<path d="M692.504 140.546C686.732 139.144 684.551 133.663 688.398 129.84C690.066 128.182 690.709 127.927 692.504 128.31C696.865 129.33 701.354 129.075 702.895 127.801C705.972 124.996 704.561 121.937 695.967 112.76C688.655 104.985 686.732 101.161 686.732 94.6604C686.86 84.3365 694.813 73.8848 702.766 73.8848C704.947 73.8848 706.102 74.2671 707.255 75.4149C710.335 78.4733 708.923 83.8272 704.817 84.974C699.815 86.2484 696.737 94.0236 699.302 98.8675C699.815 100.014 702.765 103.583 705.845 106.769C714.568 115.947 717.133 121.555 715.594 128.056C714.568 132.262 710.206 137.232 705.845 139.144C701.868 140.801 696.224 141.31 692.504 140.546Z" fill="#2227F5"/>
<path d="M721.752 143.987C720.597 140.163 719.187 107.789 719.7 87.0129C720.084 67.6379 720.213 67.1283 721.752 64.4522C723.164 61.7753 725.088 60.6285 728.808 60.3736C735.35 59.9913 747.407 60.3736 749.46 61.1384C753.821 63.0506 755.232 67.6382 752.282 70.4437C750.743 72.0995 750.614 72.0995 740.993 71.718L731.244 71.335V87.3949L736.76 87.0135C739.71 86.8853 743.559 86.5029 745.098 86.2481C748.689 85.8657 752.922 89.5623 752.153 92.494C752.025 93.5136 751.127 95.0428 750.23 95.9354C748.818 97.2098 747.792 97.5922 741.507 97.9743C737.531 98.3566 733.554 98.739 732.656 98.9938L730.988 99.3768L731.501 116.966C731.63 123.466 732.27 134.937 732.527 138.634C732.783 142.203 733.298 143.987 731.117 146.027C728.936 148.321 727.011 148.576 724.317 147.046C723.291 146.537 722.138 145.134 721.752 143.987Z" fill="#2227F5"/>
<path d="M779.605 78.4725C783.582 80.3847 788.2 85.6104 789.867 89.9442C793.587 99.8863 792.69 114.799 787.815 124.23C786.019 128.055 781.401 132.643 778.323 134.045C775.245 135.447 770.755 135.574 767.419 134.428C762.16 132.516 757.67 126.907 755.746 119.769C754.336 114.671 754.336 103.838 755.618 98.1014C758.569 85.7377 766.779 77.3257 774.731 77.3257C776.398 77.3257 778.066 77.7081 779.605 78.4725ZM770.499 92.2387C767.805 96.0619 766.522 100.141 766.266 106.896C765.751 114.289 767.035 119.898 769.728 122.446C771.524 124.359 772.551 124.485 774.475 123.083C781.786 117.985 782.812 93.3856 776.014 89.6893C775.501 89.4345 774.859 89.1797 774.218 89.307C772.934 89.307 771.781 90.3265 770.499 92.2387Z" fill="#2227F5"/>
<path d="M808.341 60.3737C820.784 60.6285 830.789 66.492 833.996 76.6884C837.973 89.3068 832.841 105.622 820.528 120.279C818.346 122.828 816.935 125.123 817.192 125.378C817.577 125.633 821.297 126.525 825.658 127.417C831.815 128.691 833.867 129.329 835.151 130.603C838.229 133.663 836.69 138.633 832.328 139.654C831.302 139.908 826.556 139.271 820.528 137.996C815.14 136.848 810.394 136.084 810.266 136.212C810.137 136.339 810.266 139.909 810.65 143.986C811.163 149.85 811.163 151.889 810.394 153.546C808.855 157.498 804.622 158.262 801.415 155.203C799.876 153.673 799.49 152.654 799.49 150.615C799.49 149.212 798.85 141.309 798.08 133.152C796.796 121.044 796.54 114.034 796.54 93.3854C796.54 62.6673 796.283 60.2461 805.262 60.2461C806.161 60.2461 807.186 60.2461 808.341 60.3737ZM807.956 79.3653C807.186 92.8758 807.699 117.093 808.854 116.456C809.111 116.201 811.163 113.652 813.344 110.847C819.629 102.563 824.118 92.1104 824.118 85.3555C824.118 79.1105 820.142 74.0114 813.857 72.2274C812.318 71.7177 811.292 71.4626 810.522 71.4626C808.469 71.3344 808.212 73.2466 807.956 79.3653Z" fill="#2227F5"/>
<path d="M893.771 148.448C893.9 149.978 893.258 151.507 892.232 152.654C891.077 153.802 889.667 154.439 888.128 154.439C886.588 154.439 885.049 153.802 884.023 152.782C882.869 151.634 882.227 150.233 882.227 148.703C882.098 137.358 881.585 117.093 881.072 99.1219C880.816 92.1106 880.688 86.2477 880.432 80.5126C880.046 81.1498 879.79 81.5322 879.533 82.1694C874.916 90.0721 870.683 97.8469 868.759 100.651C867.604 102.435 865.679 103.328 863.627 103.328C861.703 103.2 859.779 102.181 858.881 100.397L853.75 91.3465C852.852 107.152 851.827 128.692 851.827 143.477C851.954 145.007 851.314 146.409 850.288 147.556C849.133 148.576 847.721 149.213 846.182 149.213C844.643 149.213 843.104 148.703 841.949 147.556C840.923 146.536 840.281 145.007 840.281 143.477C840.154 117.604 843.361 70.9538 843.361 70.9538C843.617 68.5316 845.412 66.3646 847.85 65.8547C850.415 65.2175 852.98 66.3643 854.264 68.6589L864.013 85.9932C865.679 83.0623 867.603 79.7472 869.528 76.434C871.837 72.3554 874.145 68.4041 876.069 65.2175C877.994 62.0309 878.893 60.1193 880.944 57.952C881.971 56.9324 883.382 56.168 885.048 56.168C887.871 56.168 890.308 58.0802 890.82 60.8838C891.335 63.8155 891.463 67.7669 891.719 74.3949C892.105 81.1498 892.361 89.6894 892.618 98.7389C893.131 116.838 893.644 137.104 893.771 148.448Z" fill="#2227F5"/>
<path d="M924.819 65.4721C930.205 69.9331 931.617 72.8649 935.85 112.377C936.62 119.388 937.902 128.182 938.672 132.133C939.441 135.958 939.827 139.781 939.57 140.674C938.544 144.88 933.285 146.409 930.205 143.35C928.923 142.075 928.281 140.036 926.998 133.536L925.46 125.251L922.765 125.633C921.226 125.888 919.045 126.525 916.352 126.653C913.659 126.908 911.092 127.418 910.836 127.801C910.452 128.31 909.81 132.262 909.426 136.723C908.527 144.752 908.014 146.791 906.09 148.193C904.167 149.596 900.703 149.213 898.907 147.429C896.727 145.39 896.727 145.007 899.163 121.937C903.396 82.424 906.219 76.4338 911.991 68.0215C914.043 65.0898 916.993 63.5605 919.944 63.5605C921.612 63.5605 923.407 64.1977 924.819 65.4721ZM912.889 104.985C911.478 117.093 910.708 115.946 919.045 114.799C921.739 114.416 923.151 113.652 923.535 113.397C924.69 112.632 920.97 82.424 919.431 80.8948C919.345 80.8098 919.259 80.7673 919.174 80.7673C917.763 81.0221 914.812 88.1594 912.889 104.985Z" fill="#2227F5"/>
<path d="M977.925 151.507C976.513 149.467 966.252 127.546 960.48 114.289C957.658 107.916 955.221 102.436 955.092 102.308C954.835 102.053 954.964 105.112 955.092 108.809C955.348 112.632 955.605 120.789 955.605 127.035L955.734 136.722C955.734 138.506 955.477 139.781 954.195 140.929C952.527 142.33 950.089 142.84 947.908 141.948C944.445 140.674 944.445 139.144 943.675 106.132C942.649 71.4632 942.649 72.0995 947.268 70.5703C949.962 69.6783 951.885 70.5703 954.708 73.7569C955.477 74.6498 960.48 85.2285 965.612 97.3371C970.871 109.318 975.744 120.408 976.513 122.064L977.925 124.995L978.438 104.857C978.694 93.7678 979.08 79.8752 979.336 73.8841C979.72 63.0506 979.72 62.9224 981.516 61.1384C983.953 58.7162 986.391 58.7162 988.828 61.2659C991.266 63.5605 991.137 60.1191 989.854 112.377C989.469 128.82 988.828 141.055 988.572 147.046C988.315 153.292 984.082 155.459 980.362 153.547C979.336 153.037 978.567 152.273 977.925 151.507Z" fill="#2227F5"/>
<path d="M1024.62 63.3054C1033.34 67.3834 1039.88 75.6691 1041.94 84.9734C1043.09 90.3264 1042.32 99.5035 1040.27 105.749C1036.42 117.221 1030.52 126.398 1020.39 136.849C1013.33 144.241 1011.41 145.516 1005.76 146.154C1002.43 146.536 1001.91 146.409 1000.38 145.006C998.453 142.967 998.196 141.693 997.298 121.554C996.143 96.4448 996.785 67.8931 998.709 64.4523C1000.12 61.7753 1003.07 60.8833 1011.66 60.8833C1016.41 60.8833 1019.62 60.8833 1024.62 63.3054ZM1009.61 72.6098C1008.59 73.5018 1008.46 75.031 1008.33 93.0034C1008.33 103.709 1008.59 116.838 1008.84 122.319L1009.48 132.261L1012.05 129.201C1013.46 127.672 1016.15 124.614 1017.95 122.446C1022.57 116.966 1026.16 110.72 1028.6 104.092C1030.39 99.5032 1030.78 97.464 1030.78 92.6207C1030.91 87.2677 1030.65 86.2475 1028.98 82.8067C1027.7 80.5121 1026.03 78.2176 1024.11 76.4336C1020.9 73.6293 1016.28 71.8444 1012.95 71.8444C1011.54 71.8444 1010.38 72.0992 1009.61 72.6098Z" fill="#2227F5"/>
<path d="M1069.26 78.4725C1073.24 80.3847 1077.86 85.6104 1079.52 89.9442C1083.24 99.8863 1082.35 114.799 1077.47 124.23C1075.68 128.055 1071.06 132.643 1067.98 134.045C1064.9 135.447 1060.41 135.574 1057.08 134.428C1051.82 132.516 1047.33 126.907 1045.4 119.769C1043.99 114.671 1043.99 103.838 1045.27 98.1014C1048.23 85.7377 1056.43 77.3257 1064.39 77.3257C1066.05 77.3257 1067.72 77.7081 1069.26 78.4725ZM1060.15 92.2387C1057.46 96.0619 1056.18 100.141 1055.92 106.896C1055.41 114.289 1056.69 119.898 1059.38 122.446C1061.18 124.359 1062.21 124.485 1064.13 123.083C1071.44 117.985 1072.47 93.3856 1065.67 89.6893C1065.16 89.4345 1064.52 89.1797 1063.87 89.307C1062.59 89.307 1061.44 90.3265 1060.15 92.2387Z" fill="#2227F5"/>
</svg>
